<svg id="visual" viewBox="0 0 900 600" width="900" height="600" xmlns="http://www.w3.org/2000/svg" xmlns:xlink="http://www.w3.org/1999/xlink" version="1.1"><rect x="0" y="0" width="900" height="600" fill="#ffffff"></rect><path d="M0 274L10 276.8C20 279.7 40 285.3 60 261.3C80 237.3 100 183.7 120 168.5C140 153.3 160 176.7 180 203.2C200 229.7 220 259.3 240 262C260 264.7 280 240.3 300 231.7C320 223 340 230 360 232.7C380 235.3 400 233.7 420 222.3C440 211 460 190 480 193.2C500 196.3 520 223.7 540 227.5C560 231.3 580 211.7 600 204.7C620 197.7 640 203.3 660 215.2C680 227 700 245 720 249C740 253 760 243 780 244.3C800 245.7 820 258.3 840 267.5C860 276.7 880 282.3 890 285.2L900 288L900 0L890 0C880 0 860 0 840 0C820 0 800 0 780 0C760 0 740 0 720 0C700 0 680 0 660 0C640 0 620 0 600 0C580 0 560 0 540 0C520 0 500 0 480 0C460 0 440 0 420 0C400 0 380 0 360 0C340 0 320 0 300 0C280 0 260 0 240 0C220 0 200 0 180 0C160 0 140 0 120 0C100 0 80 0 60 0C40 0 20 0 10 0L0 0Z" fill="#58a6d0"></path><path d="M0 267L10 247.5C20 228 40 189 60 178.5C80 168 100 186 120 180C140 174 160 144 180 140.8C200 137.7 220 161.3 240 161.3C260 161.3 280 137.7 300 138C320 138.3 340 162.7 360 184.8C380 207 400 227 420 214.3C440 201.7 460 156.3 480 141.3C500 126.3 520 141.7 540 158.2C560 174.7 580 192.3 600 194.5C620 196.7 640 183.3 660 186.7C680 190 700 210 720 219.5C740 229 760 228 780 208.5C800 189 820 151 840 154.2C860 157.3 880 201.7 890 223.8L900 246L900 0L890 0C880 0 860 0 840 0C820 0 800 0 780 0C760 0 740 0 720 0C700 0 680 0 660 0C640 0 620 0 600 0C580 0 560 0 540 0C520 0 500 0 480 0C460 0 440 0 420 0C400 0 380 0 360 0C340 0 320 0 300 0C280 0 260 0 240 0C220 0 200 0 180 0C160 0 140 0 120 0C100 0 80 0 60 0C40 0 20 0 10 0L0 0Z" fill="#65b0d8"></path><path d="M0 135L10 126C20 117 40 99 60 97.5C80 96 100 111 120 119C140 127 160 128 180 125.7C200 123.3 220 117.7 240 116.8C260 116 280 120 300 120.7C320 121.3 340 118.7 360 113.3C380 108 400 100 420 115.8C440 131.7 460 171.3 480 186.8C500 202.3 520 193.7 540 176.5C560 159.3 580 133.7 600 123.2C620 112.7 640 117.3 660 133.8C680 150.3 700 178.7 720 188.3C740 198 760 189 780 182.5C800 176 820 172 840 178.2C860 184.3 880 200.7 890 208.8L900 217L900 0L890 0C880 0 860 0 840 0C820 0 800 0 780 0C760 0 740 0 720 0C700 0 680 0 660 0C640 0 620 0 600 0C580 0 560 0 540 0C520 0 500 0 480 0C460 0 440 0 420 0C400 0 380 0 360 0C340 0 320 0 300 0C280 0 260 0 240 0C220 0 200 0 180 0C160 0 140 0 120 0C100 0 80 0 60 0C40 0 20 0 10 0L0 0Z" fill="#73b9df"></path><path d="M0 61L10 78C20 95 40 129 60 134.8C80 140.7 100 118.3 120 113.8C140 109.3 160 122.7 180 127.7C200 132.7 220 129.3 240 122.7C260 116 280 106 300 102.2C320 98.3 340 100.7 360 108.8C380 117 400 131 420 123.8C440 116.7 460 88.3 480 92.8C500 97.3 520 134.7 540 137.2C560 139.7 580 107.3 600 91.2C620 75 640 75 660 73.3C680 71.7 700 68.3 720 74.7C740 81 760 97 780 102.5C800 108 820 103 840 103.3C860 103.7 880 109.3 890 112.2L900 115L900 0L890 0C880 0 860 0 840 0C820 0 800 0 780 0C760 0 740 0 720 0C700 0 680 0 660 0C640 0 620 0 600 0C580 0 560 0 540 0C520 0 500 0 480 0C460 0 440 0 420 0C400 0 380 0 360 0C340 0 320 0 300 0C280 0 260 0 240 0C220 0 200 0 180 0C160 0 140 0 120 0C100 0 80 0 60 0C40 0 20 0 10 0L0 0Z" fill="#7fc3e7"></path><path d="M0 112L10 114.3C20 116.7 40 121.3 60 116.7C80 112 100 98 120 91.8C140 85.7 160 87.3 180 83.8C200 80.3 220 71.7 240 68.7C260 65.7 280 68.3 300 78.8C320 89.3 340 107.7 360 109.5C380 111.3 400 96.7 420 86.5C440 76.3 460 70.7 480 77C500 83.3 520 101.7 540 101.7C560 101.7 580 83.3 600 75.3C620 67.3 640 69.7 660 75.3C680 81 700 90 720 85.7C740 81.3 760 63.7 780 60.8C800 58 820 70 840 75.3C860 80.7 880 79.3 890 78.7L900 78L900 0L890 0C880 0 860 0 840 0C820 0 800 0 780 0C760 0 740 0 720 0C700 0 680 0 660 0C640 0 620 0 600 0C580 0 560 0 540 0C520 0 500 0 480 0C460 0 440 0 420 0C400 0 380 0 360 0C340 0 320 0 300 0C280 0 260 0 240 0C220 0 200 0 180 0C160 0 140 0 120 0C100 0 80 0 60 0C40 0 20 0 10 0L0 0Z" fill="#8cccef"></path><path d="M0 78L10 73.3C20 68.7 40 59.3 60 60.5C80 61.7 100 73.3 120 67.7C140 62 160 39 180 34.8C200 30.7 220 45.3 240 56.7C260 68 280 76 300 77.8C320 79.7 340 75.3 360 70.2C380 65 400 59 420 51.8C440 44.7 460 36.3 480 34.7C500 33 520 38 540 45.5C560 53 580 63 600 66.8C620 70.7 640 68.3 660 62.3C680 56.3 700 46.7 720 40C740 33.3 760 29.7 780 31.8C800 34 820 42 840 45.5C860 49 880 48 890 47.5L900 47L900 0L890 0C880 0 860 0 840 0C820 0 800 0 780 0C760 0 740 0 720 0C700 0 680 0 660 0C640 0 620 0 600 0C580 0 560 0 540 0C520 0 500 0 480 0C460 0 440 0 420 0C400 0 380 0 360 0C340 0 320 0 300 0C280 0 260 0 240 0C220 0 200 0 180 0C160 0 140 0 120 0C100 0 80 0 60 0C40 0 20 0 10 0L0 0Z" fill="#99d6f7"></path></svg>